<svg width="198" height="147" viewBox="0 0 198 147" fill="none" xmlns="http://www.w3.org/2000/svg">
<path fill-rule="evenodd" clip-rule="evenodd" d="M165.449 5.85C163.549 -1.95 152.449 -1.95 150.549 5.85C150.265 7.02208 149.709 8.11063 148.925 9.02705C148.141 9.94349 147.152 10.6619 146.038 11.1238C144.924 11.5858 143.717 11.7782 142.514 11.6854C141.312 11.5927 140.149 11.2174 139.119 10.59C132.259 6.41 124.409 14.26 128.589 21.12C131.289 25.55 128.894 31.33 123.854 32.555C116.049 34.45 116.049 45.555 123.854 47.445C125.026 47.729 126.115 48.2859 127.031 49.0704C127.948 49.8548 128.666 50.8446 129.127 51.9591C129.589 53.0736 129.781 54.2814 129.687 55.4841C129.593 56.6867 129.217 57.8503 128.589 58.88C124.409 65.74 132.259 73.59 139.119 69.41C140.148 68.7816 141.312 68.4053 142.515 68.3117C143.717 68.218 144.925 68.4098 146.04 68.8713C147.154 69.3328 148.144 70.051 148.928 70.9674C149.713 71.8839 150.27 72.9726 150.554 74.145C152.449 81.95 163.554 81.95 165.444 74.145C165.729 72.9732 166.286 71.8852 167.071 70.9694C167.855 70.0536 168.845 69.3359 169.959 68.8745C171.073 68.4132 172.281 68.2212 173.483 68.3142C174.685 68.4073 175.849 68.7827 176.879 69.41C183.739 73.59 191.589 65.74 187.409 58.88C186.781 57.8501 186.406 56.6866 186.313 55.4843C186.22 54.282 186.412 53.0746 186.873 51.9604C187.335 50.8462 188.052 49.8566 188.968 49.072C189.884 48.2874 190.972 47.73 192.144 47.445C199.949 45.55 199.949 34.445 192.144 32.555C190.971 32.271 189.883 31.7141 188.966 30.9296C188.05 30.1452 187.332 29.1554 186.87 28.0409C186.409 26.9264 186.217 25.7186 186.31 24.5159C186.404 23.3133 186.78 22.1497 187.409 21.12C191.589 14.26 183.739 6.41 176.879 10.59C175.849 11.2184 174.685 11.5947 173.483 11.6883C172.28 11.782 171.072 11.5902 169.958 11.1287C168.843 10.6672 167.854 9.94898 167.069 9.03256C166.285 8.11613 165.728 7.02739 165.444 5.855L165.449 5.85ZM157.999 55C161.977 55 165.792 53.4197 168.605 50.6066C171.418 47.7936 172.999 43.9782 172.999 40C172.999 36.0218 171.418 32.2064 168.605 29.3934C165.792 26.5804 161.977 25 157.999 25C154.021 25 150.205 26.5804 147.392 29.3934C144.579 32.2064 142.999 36.0218 142.999 40C142.999 43.9782 144.579 47.7936 147.392 50.6066C150.205 53.4197 154.021 55 157.999 55Z" fill="#393E46"/>
<path fill-rule="evenodd" clip-rule="evenodd" d="M47.4487 54.85C45.5487 47.05 34.4487 47.05 32.5487 54.85C32.2651 56.0221 31.7087 57.1106 30.9249 58.0271C30.141 58.9435 29.1519 59.6619 28.038 60.1238C26.924 60.5858 25.7168 60.7782 24.5144 60.6854C23.3121 60.5927 22.1486 60.2174 21.1187 59.59C14.2587 55.41 6.40875 63.26 10.5887 70.12C13.2887 74.55 10.8937 80.33 5.85375 81.555C-1.95125 83.45 -1.95125 94.555 5.85375 96.445C7.02614 96.729 8.11488 97.2859 9.03131 98.0704C9.94773 98.8548 10.6659 99.8446 11.1274 100.959C11.589 102.074 11.7807 103.281 11.6871 104.484C11.5935 105.687 11.2172 106.85 10.5887 107.88C6.40875 114.74 14.2587 122.59 21.1187 118.41C22.1484 117.782 23.312 117.405 24.5147 117.312C25.7173 117.218 26.9251 117.41 28.0396 117.871C29.1542 118.333 30.144 119.051 30.9284 119.967C31.7128 120.884 32.2697 121.973 32.5537 123.145C34.4487 130.95 45.5537 130.95 47.4437 123.145C47.7287 121.973 48.2862 120.885 49.0708 119.969C49.8554 119.054 50.845 118.336 51.9592 117.875C53.0734 117.413 54.2807 117.221 55.483 117.314C56.6854 117.407 57.8488 117.783 58.8787 118.41C65.7387 122.59 73.5887 114.74 69.4087 107.88C68.7814 106.85 68.406 105.687 68.313 104.484C68.2199 103.282 68.4119 102.075 68.8733 100.96C69.3346 99.8462 70.0524 98.8566 70.9682 98.072C71.884 97.2874 72.972 96.73 74.1437 96.445C81.9487 94.55 81.9487 83.445 74.1437 81.555C72.9714 81.271 71.8826 80.7141 70.9662 79.9296C70.0498 79.1452 69.3316 78.1554 68.87 77.0409C68.4085 75.9264 68.2168 74.7186 68.3104 73.5159C68.404 72.3133 68.7803 71.1497 69.4087 70.12C73.5887 63.26 65.7387 55.41 58.8787 59.59C57.849 60.2184 56.6855 60.5947 55.4828 60.6883C54.2802 60.782 53.0724 60.5902 51.9579 60.1287C50.8433 59.6672 49.8535 58.949 49.0691 58.0326C48.2847 57.1161 47.7278 56.0274 47.4437 54.855L47.4487 54.85ZM39.9987 104C43.977 104 47.7923 102.42 50.6054 99.6066C53.4184 96.7936 54.9987 92.9782 54.9987 89C54.9987 85.0218 53.4184 81.2064 50.6054 78.3934C47.7923 75.5804 43.977 74 39.9987 74C36.0205 74 32.2052 75.5804 29.3921 78.3934C26.5791 81.2064 24.9987 85.0218 24.9987 89C24.9987 92.9782 26.5791 96.7936 29.3921 99.6066C32.2052 102.42 36.0205 104 39.9987 104Z" fill="#393E46"/>
<path fill-rule="evenodd" clip-rule="evenodd" d="M125.449 72.85C123.549 65.05 112.449 65.05 110.549 72.85C110.265 74.0221 109.709 75.1106 108.925 76.0271C108.141 76.9435 107.152 77.6619 106.038 78.1238C104.924 78.5858 103.717 78.7782 102.514 78.6854C101.312 78.5927 100.149 78.2174 99.1187 77.59C92.2587 73.41 84.4087 81.26 88.5887 88.12C91.2887 92.55 88.8937 98.33 83.8537 99.555C76.0488 101.45 76.0488 112.555 83.8537 114.445C85.0261 114.729 86.1149 115.286 87.0313 116.07C87.9477 116.855 88.6659 117.845 89.1274 118.959C89.589 120.074 89.7807 121.281 89.6871 122.484C89.5935 123.687 89.2172 124.85 88.5887 125.88C84.4087 132.74 92.2587 140.59 99.1187 136.41C100.148 135.782 101.312 135.405 102.515 135.312C103.717 135.218 104.925 135.41 106.04 135.871C107.154 136.333 108.144 137.051 108.928 137.967C109.713 138.884 110.27 139.973 110.554 141.145C112.449 148.95 123.554 148.95 125.444 141.145C125.729 139.973 126.286 138.885 127.071 137.969C127.855 137.054 128.845 136.336 129.959 135.875C131.073 135.413 132.281 135.221 133.483 135.314C134.685 135.407 135.849 135.783 136.879 136.41C143.739 140.59 151.589 132.74 147.409 125.88C146.781 124.85 146.406 123.687 146.313 122.484C146.22 121.282 146.412 120.075 146.873 118.96C147.335 117.846 148.052 116.857 148.968 116.072C149.884 115.287 150.972 114.73 152.144 114.445C159.949 112.55 159.949 101.445 152.144 99.555C150.971 99.271 149.883 98.7141 148.966 97.9296C148.05 97.1452 147.332 96.1554 146.87 95.0409C146.409 93.9264 146.217 92.7186 146.31 91.5159C146.404 90.3133 146.78 89.1497 147.409 88.12C151.589 81.26 143.739 73.41 136.879 77.59C135.849 78.2184 134.685 78.5947 133.483 78.6883C132.28 78.782 131.072 78.5902 129.958 78.1287C128.843 77.6672 127.854 76.949 127.069 76.0326C126.285 75.1161 125.728 74.0274 125.444 72.855L125.449 72.85ZM117.999 122C121.977 122 125.792 120.42 128.605 117.607C131.418 114.794 132.999 110.978 132.999 107C132.999 103.022 131.418 99.2064 128.605 96.3934C125.792 93.5804 121.977 92 117.999 92C114.021 92 110.205 93.5804 107.392 96.3934C104.579 99.2064 102.999 103.022 102.999 107C102.999 110.978 104.579 114.794 107.392 117.607C110.205 120.42 114.021 122 117.999 122Z" fill="#393E46"/>
</svg>
