<svg width="551" height="405" viewBox="0 0 551 405" fill="none" xmlns="http://www.w3.org/2000/svg">
<path d="M235 165C235 161.022 236.58 157.206 239.393 154.393C242.206 151.58 246.022 150 250 150H287.5L302.5 165H340C343.978 165 347.794 166.58 350.607 169.393C353.42 172.206 355 176.022 355 180V225C355 228.978 353.42 232.794 350.607 235.607C347.794 238.42 343.978 240 340 240H250C246.022 240 242.206 238.42 239.393 235.607C236.58 232.794 235 228.978 235 225V165Z" fill="#393E46"/>
<path d="M312 330C312 326.022 313.58 322.206 316.393 319.393C319.206 316.58 323.022 315 327 315H364.5L379.5 330H417C420.978 330 424.794 331.58 427.607 334.393C430.42 337.206 432 341.022 432 345V390C432 393.978 430.42 397.794 427.607 400.607C424.794 403.42 420.978 405 417 405H327C323.022 405 319.206 403.42 316.393 400.607C313.58 397.794 312 393.978 312 390V330Z" fill="#393E46"/>
<path d="M0 161C0 157.022 1.58035 153.206 4.3934 150.393C7.20644 147.58 11.0218 146 15 146H52.5L67.5 161H105C108.978 161 112.794 162.58 115.607 165.393C118.42 168.206 120 172.022 120 176V221C120 224.978 118.42 228.794 115.607 231.607C112.794 234.42 108.978 236 105 236H15C11.0218 236 7.20644 234.42 4.3934 231.607C1.58035 228.794 0 224.978 0 221V161Z" fill="#393E46"/>
<path d="M117 15C117 11.0218 118.58 7.20644 121.393 4.3934C124.206 1.58035 128.022 0 132 0H169.5L184.5 15H222C225.978 15 229.794 16.5804 232.607 19.3934C235.42 22.2064 237 26.0218 237 30V75C237 78.9782 235.42 82.7936 232.607 85.6066C229.794 88.4196 225.978 90 222 90H132C128.022 90 124.206 88.4196 121.393 85.6066C118.58 82.7936 117 78.9782 117 75V15Z" fill="#393E46"/>
<path d="M80.1342 200.466L177.039 49.9032L274.167 200.322L80.1342 200.466Z" stroke="#393E46" stroke-width="5"/>
<path d="M469.988 204.735L370.383 353.525L275.984 201.378L469.988 204.735Z" stroke="#393E46" stroke-width="5"/>
<path d="M431 178C431 174.022 432.58 170.206 435.393 167.393C438.206 164.58 442.022 163 446 163H483.5L498.5 178H536C539.978 178 543.794 179.58 546.607 182.393C549.42 185.206 551 189.022 551 193V238C551 241.978 549.42 245.794 546.607 248.607C543.794 251.42 539.978 253 536 253H446C442.022 253 438.206 251.42 435.393 248.607C432.58 245.794 431 241.978 431 238V178Z" fill="#393E46"/>
</svg>
