<svg width="300" height="300" viewBox="0 0 300 300" fill="none" xmlns="http://www.w3.org/2000/svg">
<path d="M186.033 84.9998C199.672 84.9998 213.052 88.7188 224.735 95.7566C236.417 102.794 245.96 112.885 252.335 124.942C258.71 136.999 261.677 150.566 260.916 164.183C260.156 177.8 255.696 190.953 248.018 202.224C240.339 213.496 229.732 222.461 217.338 228.154C204.945 233.847 191.233 236.052 177.68 234.533C164.126 233.014 151.243 227.828 140.417 219.533C129.591 211.237 121.232 200.147 116.239 187.455L135.357 179.934C138.982 189.15 145.052 197.202 152.912 203.225C160.773 209.248 170.127 213.014 179.968 214.117C189.809 215.22 199.764 213.618 208.763 209.485C217.762 205.351 225.463 198.842 231.039 190.658C236.614 182.474 239.852 172.924 240.404 163.037C240.957 153.15 238.802 143.299 234.173 134.545C229.544 125.791 222.616 118.464 214.134 113.354C205.651 108.244 195.936 105.544 186.033 105.544V84.9998Z" fill="#00ADB5"/>
<path d="M187.033 226C187.033 235.849 185.093 245.602 181.324 254.701C177.555 263.8 172.031 272.068 165.066 279.033L150.539 264.506C155.596 259.449 159.607 253.446 162.344 246.839C165.081 240.232 166.489 233.151 166.489 226H187.033Z" fill="#00ADB5"/>
<path d="M75.033 105C65.1839 105 55.4312 103.06 46.3318 99.2912C37.2323 95.5221 28.9644 89.9976 22 83.0332L36.5269 68.5063C41.5836 73.5631 47.5867 77.5743 54.1936 80.3109C60.8005 83.0476 67.8818 84.4561 75.033 84.4561V105Z" fill="#00ADB5"/>
<path d="M150.033 171C137.147 171 124.479 167.68 113.249 161.36C102.019 155.04 92.6073 145.933 85.9207 134.918C79.2341 123.902 75.4985 111.35 75.0739 98.4709C74.6494 85.5919 77.5503 72.8208 83.4969 61.389C89.4436 49.9571 98.2353 40.2503 109.024 33.2045C119.814 26.1586 132.236 22.0114 145.094 21.1628C157.952 20.3142 170.812 22.7928 182.433 28.3596C194.055 33.9264 204.046 42.3936 211.444 52.9447L194.622 64.7385C189.251 57.0775 181.996 50.9297 173.558 46.8877C165.12 42.8458 155.783 41.0462 146.447 41.6623C137.111 42.2785 128.091 45.2896 120.258 50.4055C112.424 55.5213 106.04 62.5693 101.723 70.8697C97.4049 79.1701 95.2986 88.4429 95.6068 97.7941C95.9151 107.145 98.6275 116.259 103.482 124.257C108.337 132.255 115.171 138.868 123.325 143.456C131.479 148.045 140.677 150.456 150.033 150.456V171Z" fill="#00ADB5"/>
<path d="M75.0332 84.9998H187.033V105H75.0332V84.9998Z" fill="#00ADB5"/>
<path d="M167 123H187V235H167V123Z" fill="#00ADB5"/>
</svg>
