<svg width="341" height="200" viewBox="0 0 341 200" fill="none" xmlns="http://www.w3.org/2000/svg">
<path d="M20 2.5H320C329.665 2.5 337.5 10.335 337.5 20V180C337.5 189.665 329.665 197.5 320 197.5H20C10.335 197.5 2.5 189.665 2.5 180V20C2.5 10.335 10.335 2.5 20 2.5Z" fill="#00ADB5" stroke="#222831" stroke-width="5"/>
<line x1="2.0074" y1="30.5" x2="340.007" y2="31.5" stroke="#222831" stroke-width="5"/>
<circle cx="315" cy="17" r="10" fill="#222831"/>
<circle cx="290" cy="17" r="10" fill="#222831"/>
<circle cx="264" cy="17" r="10" fill="#222831"/>
<path d="M73.0968 132.216V120.107L103.459 72.2727H113.899V89.0341H107.72L88.5797 119.325V119.893H131.726V132.216H73.0968ZM108.004 145V128.523L108.289 123.161V72.2727H122.706V145H108.004ZM170.487 146.598C164.379 146.574 159.123 145.071 154.72 142.088C150.34 139.105 146.966 134.785 144.599 129.126C142.255 123.468 141.095 116.662 141.119 108.707C141.119 100.777 142.291 94.0175 144.634 88.4304C147.002 82.8433 150.375 78.5937 154.755 75.6818C159.159 72.7462 164.402 71.2784 170.487 71.2784C176.571 71.2784 181.803 72.7462 186.183 75.6818C190.586 78.6174 193.972 82.8788 196.339 88.4659C198.706 94.0294 199.878 100.777 199.855 108.707C199.855 116.686 198.671 123.504 196.303 129.162C193.96 134.82 190.598 139.141 186.218 142.124C181.838 145.107 176.595 146.598 170.487 146.598ZM170.487 133.849C174.653 133.849 177.98 131.754 180.465 127.564C182.951 123.374 184.182 117.088 184.159 108.707C184.159 103.191 183.59 98.5985 182.454 94.929C181.341 91.2595 179.755 88.5014 177.695 86.6548C175.66 84.8082 173.257 83.8849 170.487 83.8849C166.344 83.8849 163.029 85.9564 160.544 90.0994C158.058 94.2424 156.803 100.445 156.779 108.707C156.779 114.295 157.336 118.958 158.448 122.699C159.585 126.416 161.183 129.209 163.242 131.08C165.302 132.926 167.717 133.849 170.487 133.849ZM209.718 132.216V120.107L240.08 72.2727H250.52V89.0341H244.341L225.201 119.325V119.893H268.347V132.216H209.718ZM244.626 145V128.523L244.91 123.161V72.2727H259.327V145H244.626Z" fill="#222831"/>
<path d="M102.503 163V149.909H107.668C108.661 149.909 109.507 150.099 110.205 150.478C110.904 150.853 111.437 151.375 111.803 152.044C112.174 152.709 112.36 153.476 112.36 154.345C112.36 155.214 112.172 155.982 111.797 156.646C111.422 157.311 110.879 157.829 110.167 158.2C109.46 158.57 108.603 158.756 107.597 158.756H104.306V156.538H107.15C107.683 156.538 108.122 156.446 108.467 156.263C108.816 156.075 109.076 155.817 109.247 155.489C109.421 155.157 109.509 154.776 109.509 154.345C109.509 153.911 109.421 153.531 109.247 153.207C109.076 152.879 108.816 152.626 108.467 152.447C108.117 152.263 107.674 152.172 107.137 152.172H105.271V163H102.503ZM116.642 163.185C116.016 163.185 115.458 163.077 114.968 162.859C114.477 162.638 114.09 162.312 113.804 161.881C113.523 161.447 113.382 160.906 113.382 160.258C113.382 159.712 113.482 159.254 113.683 158.884C113.883 158.513 114.156 158.214 114.501 157.989C114.846 157.763 115.238 157.592 115.677 157.477C116.12 157.362 116.585 157.281 117.07 157.234C117.642 157.175 118.102 157.119 118.451 157.068C118.801 157.013 119.054 156.932 119.212 156.825C119.369 156.719 119.448 156.561 119.448 156.352V156.314C119.448 155.909 119.32 155.596 119.065 155.374C118.813 155.153 118.455 155.042 117.991 155.042C117.501 155.042 117.111 155.151 116.821 155.368C116.531 155.581 116.34 155.849 116.246 156.173L113.727 155.969C113.855 155.372 114.107 154.857 114.482 154.422C114.857 153.983 115.34 153.646 115.933 153.412C116.529 153.173 117.22 153.054 118.004 153.054C118.549 153.054 119.071 153.118 119.57 153.246C120.073 153.374 120.518 153.572 120.906 153.84C121.298 154.109 121.607 154.454 121.833 154.876C122.058 155.293 122.171 155.794 122.171 156.378V163H119.589V161.638H119.512C119.355 161.945 119.144 162.216 118.879 162.45C118.615 162.68 118.298 162.862 117.927 162.994C117.556 163.121 117.128 163.185 116.642 163.185ZM117.422 161.306C117.823 161.306 118.176 161.227 118.483 161.07C118.79 160.908 119.031 160.69 119.205 160.418C119.38 160.145 119.468 159.836 119.468 159.491V158.449C119.382 158.504 119.265 158.555 119.116 158.602C118.971 158.645 118.807 158.685 118.624 158.724C118.441 158.758 118.257 158.79 118.074 158.82C117.891 158.845 117.725 158.869 117.575 158.89C117.256 158.937 116.977 159.011 116.738 159.114C116.499 159.216 116.314 159.354 116.182 159.529C116.05 159.7 115.984 159.913 115.984 160.168C115.984 160.539 116.118 160.822 116.387 161.018C116.659 161.21 117.004 161.306 117.422 161.306ZM128.707 166.886C127.825 166.886 127.069 166.765 126.438 166.522C125.812 166.283 125.313 165.957 124.942 165.544C124.572 165.131 124.331 164.666 124.22 164.151L126.738 163.812C126.815 164.008 126.937 164.191 127.103 164.362C127.269 164.532 127.488 164.668 127.761 164.771C128.038 164.877 128.375 164.93 128.771 164.93C129.363 164.93 129.851 164.786 130.235 164.496C130.623 164.21 130.817 163.731 130.817 163.058V161.261H130.702C130.582 161.534 130.403 161.792 130.165 162.035C129.926 162.278 129.619 162.476 129.244 162.629C128.869 162.783 128.422 162.859 127.902 162.859C127.165 162.859 126.493 162.689 125.888 162.348C125.287 162.003 124.808 161.477 124.45 160.769C124.096 160.058 123.92 159.158 123.92 158.072C123.92 156.96 124.101 156.031 124.463 155.285C124.825 154.539 125.307 153.981 125.907 153.61C126.513 153.239 127.175 153.054 127.895 153.054C128.445 153.054 128.905 153.148 129.276 153.335C129.647 153.518 129.945 153.749 130.171 154.026C130.401 154.298 130.578 154.567 130.702 154.831H130.804V153.182H133.508V163.096C133.508 163.931 133.303 164.63 132.894 165.192C132.485 165.755 131.918 166.177 131.194 166.458C130.474 166.744 129.645 166.886 128.707 166.886ZM128.765 160.814C129.204 160.814 129.574 160.705 129.877 160.488C130.184 160.266 130.418 159.951 130.58 159.542C130.746 159.129 130.829 158.634 130.829 158.059C130.829 157.484 130.748 156.985 130.586 156.563C130.425 156.137 130.19 155.807 129.883 155.572C129.577 155.338 129.204 155.221 128.765 155.221C128.317 155.221 127.94 155.342 127.633 155.585C127.327 155.824 127.094 156.156 126.937 156.582C126.779 157.009 126.7 157.501 126.7 158.059C126.7 158.626 126.779 159.116 126.937 159.529C127.099 159.938 127.331 160.256 127.633 160.482C127.94 160.703 128.317 160.814 128.765 160.814ZM140.149 163.192C139.139 163.192 138.27 162.987 137.541 162.578C136.817 162.165 136.258 161.581 135.866 160.827C135.474 160.068 135.278 159.171 135.278 158.136C135.278 157.126 135.474 156.239 135.866 155.477C136.258 154.714 136.81 154.119 137.522 153.693C138.238 153.267 139.077 153.054 140.04 153.054C140.688 153.054 141.291 153.158 141.849 153.367C142.412 153.572 142.902 153.881 143.319 154.294C143.741 154.707 144.069 155.227 144.304 155.854C144.538 156.476 144.655 157.205 144.655 158.04V158.788H136.365V157.1H142.092C142.092 156.708 142.007 156.361 141.836 156.058C141.666 155.756 141.43 155.519 141.127 155.349C140.829 155.174 140.481 155.087 140.085 155.087C139.672 155.087 139.305 155.183 138.986 155.374C138.67 155.562 138.423 155.815 138.244 156.135C138.065 156.45 137.974 156.802 137.969 157.19V158.794C137.969 159.28 138.059 159.7 138.238 160.053C138.421 160.407 138.679 160.68 139.011 160.871C139.344 161.063 139.738 161.159 140.194 161.159C140.496 161.159 140.773 161.116 141.025 161.031C141.276 160.946 141.491 160.818 141.67 160.648C141.849 160.477 141.986 160.268 142.079 160.021L144.598 160.188C144.47 160.793 144.208 161.321 143.812 161.773C143.42 162.22 142.912 162.57 142.29 162.821C141.672 163.068 140.959 163.192 140.149 163.192ZM161.599 149.909V163H159.208L153.513 154.761H153.417V163H150.65V149.909H153.078L158.729 158.142H158.844V149.909H161.599ZM168.271 163.192C167.278 163.192 166.419 162.981 165.695 162.559C164.975 162.133 164.419 161.54 164.026 160.782C163.634 160.019 163.438 159.135 163.438 158.129C163.438 157.115 163.634 156.229 164.026 155.47C164.419 154.707 164.975 154.115 165.695 153.693C166.419 153.267 167.278 153.054 168.271 153.054C169.264 153.054 170.12 153.267 170.84 153.693C171.565 154.115 172.123 154.707 172.515 155.47C172.907 156.229 173.103 157.115 173.103 158.129C173.103 159.135 172.907 160.019 172.515 160.782C172.123 161.54 171.565 162.133 170.84 162.559C170.12 162.981 169.264 163.192 168.271 163.192ZM168.284 161.082C168.735 161.082 169.112 160.955 169.415 160.699C169.718 160.439 169.945 160.085 170.099 159.638C170.257 159.19 170.335 158.681 170.335 158.11C170.335 157.539 170.257 157.03 170.099 156.582C169.945 156.135 169.718 155.781 169.415 155.521C169.112 155.261 168.735 155.131 168.284 155.131C167.828 155.131 167.444 155.261 167.133 155.521C166.826 155.781 166.594 156.135 166.436 156.582C166.283 157.03 166.206 157.539 166.206 158.11C166.206 158.681 166.283 159.19 166.436 159.638C166.594 160.085 166.826 160.439 167.133 160.699C167.444 160.955 167.828 161.082 168.284 161.082ZM180.096 153.182V155.227H174.183V153.182H180.096ZM175.526 150.83H178.249V159.983C178.249 160.234 178.287 160.43 178.364 160.571C178.441 160.707 178.547 160.803 178.683 160.859C178.824 160.914 178.986 160.942 179.169 160.942C179.297 160.942 179.425 160.931 179.553 160.91C179.681 160.884 179.779 160.865 179.847 160.852L180.275 162.879C180.139 162.921 179.947 162.97 179.7 163.026C179.453 163.085 179.152 163.121 178.798 163.134C178.142 163.16 177.567 163.072 177.073 162.872C176.583 162.672 176.201 162.361 175.928 161.939C175.656 161.517 175.521 160.984 175.526 160.341V150.83ZM186.087 163V149.909H194.755V152.191H188.855V155.31H194.179V157.592H188.855V163H186.087ZM200.281 163.192C199.288 163.192 198.429 162.981 197.705 162.559C196.984 162.133 196.428 161.54 196.036 160.782C195.644 160.019 195.448 159.135 195.448 158.129C195.448 157.115 195.644 156.229 196.036 155.47C196.428 154.707 196.984 154.115 197.705 153.693C198.429 153.267 199.288 153.054 200.281 153.054C201.273 153.054 202.13 153.267 202.85 153.693C203.575 154.115 204.133 154.707 204.525 155.47C204.917 156.229 205.113 157.115 205.113 158.129C205.113 159.135 204.917 160.019 204.525 160.782C204.133 161.54 203.575 162.133 202.85 162.559C202.13 162.981 201.273 163.192 200.281 163.192ZM200.293 161.082C200.745 161.082 201.122 160.955 201.425 160.699C201.727 160.439 201.955 160.085 202.109 159.638C202.266 159.19 202.345 158.681 202.345 158.11C202.345 157.539 202.266 157.03 202.109 156.582C201.955 156.135 201.727 155.781 201.425 155.521C201.122 155.261 200.745 155.131 200.293 155.131C199.837 155.131 199.454 155.261 199.143 155.521C198.836 155.781 198.604 156.135 198.446 156.582C198.293 157.03 198.216 157.539 198.216 158.11C198.216 158.681 198.293 159.19 198.446 159.638C198.604 160.085 198.836 160.439 199.143 160.699C199.454 160.955 199.837 161.082 200.293 161.082ZM213.18 158.82V153.182H215.903V163H213.288V161.217H213.186C212.964 161.792 212.596 162.254 212.08 162.604C211.569 162.953 210.945 163.128 210.207 163.128C209.551 163.128 208.974 162.979 208.475 162.68C207.977 162.382 207.587 161.958 207.305 161.408C207.028 160.859 206.888 160.2 206.884 159.433V153.182H209.607V158.947C209.611 159.527 209.766 159.985 210.073 160.322C210.38 160.658 210.791 160.827 211.307 160.827C211.635 160.827 211.942 160.752 212.227 160.603C212.513 160.45 212.743 160.224 212.918 159.925C213.097 159.627 213.184 159.259 213.18 158.82ZM220.804 157.324V163H218.081V153.182H220.676V154.914H220.791C221.008 154.343 221.373 153.891 221.884 153.559C222.395 153.222 223.015 153.054 223.744 153.054C224.426 153.054 225.02 153.203 225.528 153.501C226.035 153.8 226.429 154.226 226.71 154.78C226.991 155.33 227.132 155.986 227.132 156.749V163H224.409V157.234C224.413 156.634 224.26 156.165 223.949 155.828C223.638 155.487 223.209 155.317 222.664 155.317C222.297 155.317 221.974 155.396 221.692 155.553C221.415 155.711 221.198 155.941 221.04 156.244C220.887 156.542 220.808 156.902 220.804 157.324ZM232.896 163.16C232.15 163.16 231.475 162.968 230.87 162.585C230.269 162.197 229.792 161.628 229.438 160.878C229.088 160.124 228.914 159.199 228.914 158.104C228.914 156.979 229.095 156.043 229.457 155.298C229.819 154.548 230.301 153.987 230.902 153.616C231.507 153.241 232.169 153.054 232.89 153.054C233.439 153.054 233.897 153.148 234.264 153.335C234.635 153.518 234.933 153.749 235.159 154.026C235.389 154.298 235.564 154.567 235.683 154.831H235.766V149.909H238.483V163H235.798V161.428H235.683C235.555 161.7 235.374 161.971 235.14 162.239C234.909 162.504 234.609 162.723 234.238 162.898C233.872 163.072 233.424 163.16 232.896 163.16ZM233.759 160.993C234.198 160.993 234.569 160.874 234.871 160.635C235.178 160.392 235.412 160.053 235.574 159.619C235.74 159.184 235.824 158.675 235.824 158.091C235.824 157.507 235.743 157 235.581 156.57C235.419 156.139 235.184 155.807 234.877 155.572C234.571 155.338 234.198 155.221 233.759 155.221C233.311 155.221 232.934 155.342 232.627 155.585C232.321 155.828 232.088 156.165 231.931 156.595C231.773 157.026 231.694 157.524 231.694 158.091C231.694 158.662 231.773 159.167 231.931 159.606C232.093 160.04 232.325 160.381 232.627 160.629C232.934 160.871 233.311 160.993 233.759 160.993Z" fill="#222831"/>
</svg>
